<svg width="68" height="22" fill="none" xmlns="http://www.w3.org/2000/svg"><path d="M22.936 2.68c-1.86 1.52-4.24 4.9-6 7.66-.08.6-.16 1.16-.28 1.68-.66 2.94-1.68 3.46-2.42 3.46-.76 0-1.38-.62-1.38-1.46 0-.62.52-1.66 1.16-2.58.28-2.18.96-5.66 2.34-9.08-3.14 3.2-6.44 14.1-12.02 14.1-2.2 0-3.46-1.18-3.46-2.62 0-1.32.98-2.14 1.94-2.14.8 0 1.44.44 1.44.98 0 .26-.6.4-.6 1.22 0 .68.52 1.04 1.22 1.04 5.06 0 9.12-14.32 12.24-14.32.94 0 1.7.68 1.7 1.5 0 .24-.06.52-.18.84-.78 2.2-1.16 3.84-1.4 5.2 2.26-3.42 5.04-7.14 6.6-7.14.7 0 1.58.62 1.58 1.5 0 .24-.04.52-.18.84-.78 1.88-3.1 6.06-3.1 8.94 0 .48.26 1.1.68 1.1.36 0 .96-.08 2.32-2.02.08-.12.2-.18.3-.18.14 0 .26.12.26.3 0 .1-.02.22-.1.34-1.1 1.98-2.38 3.6-4.22 3.6-1.16 0-2-1-2-2.64 0-2.86 2.2-7.56 3.56-10.12zm5.68 12.9l.12-1.24c-.78.68-1.5.84-2.1.84-1.28 0-1.96-1.02-1.96-2.26 0-.92.28-2.2.68-3.2.5-1.24 1.08-2.28 1.82-2.28.72 0 1.14.54 1.14 1.2 0 .36-.18.56-.48 1.12-.6 1.14-.88 2.18-.88 2.86 0 .6.24.98.6.98.52 0 .94-.28 1.36-.74.32-2.36.96-5.08 2.66-5.08.72 0 .92.54.92 1.2 0 1.06-.86 2.58-1.56 3.66-.08 1.58-.1 4.08-.96 5.96-.68 1.48-2.08 2.44-3.78 2.44-1.66 0-2.74-1.02-2.74-2.34 0-1.42 1.42-2.48 2.9-2.48.44 0 .84.12.84.42 0 .1-.08.16-.26.26-.64.38-1.4 1.04-1.4 1.96 0 .6.38 1.06.94 1.06 1.16 0 1.84-1.92 2.14-4.34zm9.93-11.14c0 3.04 6.02 3.32 6.02 7.4 0 2.86-2.82 5.18-6.54 5.18-3.34 0-5.38-1.9-5.38-3.92 0-1.34.92-2.46 2.22-2.46.78 0 1.38.52 1.38.9s-.64.7-.64 1.78c0 1.32 1.04 2.54 2.94 2.54 1.78 0 3.16-1.18 3.16-2.86 0-3.36-6-3.72-6-7.6 0-2.62 2.82-4.62 6.14-4.62 2 0 3.86.76 3.86 2.42 0 1.54-1.52 2.2-2.68 2.2-.98 0-1.42-.38-1.42-.7 0-.1.06-.18.16-.2.8-.24 1.26-.66 1.26-1.34 0-.76-.7-1.18-1.56-1.18-1.34 0-2.92.86-2.92 2.46zM52.22 7.78c.72 0 1 .54 1 1.2 0 1.06-.88 2.44-1.46 3.08-.02.16-.02.34-.02.5 0 .6.28.88.62.88.38 0 .98-.12 2.34-2.06.08-.12.2-.18.3-.18.14 0 .26.12.26.3 0 .1-.02.2-.1.34-1.5 2.7-2.84 3.34-3.88 3.34-.82 0-1.32-.48-1.58-1.18-.9.96-1.74 1.18-2.42 1.18-1.28 0-1.96-1.02-1.96-2.26 0-.92.28-2.2.68-3.2.5-1.24 1.08-2.28 1.82-2.28.72 0 1.14.54 1.14 1.2 0 .36-.16.56-.48 1.12-.64 1.14-.96 2-.96 2.8 0 .84.32 1.04.68 1.04.48 0 .92-.26 1.34-.66v-.02c0-.92.34-2.2.74-3.2.5-1.24 1.2-1.94 1.94-1.94zm9.126-4.98c0 1.42-.9 3.22-2.14 4.86.24-.14.48-.22.74-.22 1.36 0 1.98 1.26 1.98 2.48 0 2.3-1.98 5.26-4.54 5.26-2.08 0-2.96-1.42-2.96-3.3 0-.82.14-1.72.38-2.66.84-3.4 2.88-8.44 5.06-8.44.98 0 1.48.82 1.48 2.02zm-1.64.88c-.56 0-1.84 2.74-2.62 5.3 1.66-1.8 2.84-3.84 2.84-4.98 0-.14-.02-.32-.22-.32zm-1.54 5.7c-.08 0-.22-.02-.22-.22V9.1c-.4.4-.8.76-1.2 1.1-.1.4-.2 1.02-.2 1.72 0 .96.3 2.02 1.18 2.02 1.2 0 2.16-1.74 2.16-3.16 0-1.16-.42-1.68-.94-1.68-.34 0-.54.28-.78.28zm6.326 2.04c0 .12-.22.16-.44.34-.5.42-.74.82-.74 1.42 0 .62.38.94.76.94.62 0 1.08-.62 1.08-1.5 0-1.46-1.36-3.02-1.36-4.26 0-.9.7-1.94 1.7-1.94.68 0 .94.48.94 1 0 .54-.28 1.2-.74 1.7.62.96 1.58 1.76 1.58 3.1 0 1.62-1.36 2.98-3.34 2.98-1.66 0-2.44-.98-2.44-1.98 0-1.3 1.18-2.24 2.26-2.24.4 0 .74.18.74.44z" fill="#051D40"/></svg>